<svg xmlns="http://www.w3.org/2000/svg" xmlns:xlink="http://www.w3.org/1999/xlink" width="64" zoomAndPan="magnify" viewBox="0 0 48 48" height="64" preserveAspectRatio="xMidYMid meet" version="1.0"><defs><g/><clipPath id="id1"><path d="M 0.488281 0 L 47.507812 0 L 47.507812 47.019531 L 0.488281 47.019531 Z M 0.488281 0 " clip-rule="nonzero"/></clipPath></defs><g clip-path="url(#id1)"><path fill="rgb(100%, 100%, 100%)" d="M 0.488281 0 L 47.511719 0 L 47.511719 54.367188 L 0.488281 54.367188 Z M 0.488281 0 " fill-opacity="1" fill-rule="nonzero"/><path fill="rgb(100%, 100%, 100%)" d="M 0.488281 0 L 47.511719 0 L 47.511719 47.019531 L 0.488281 47.019531 Z M 0.488281 0 " fill-opacity="1" fill-rule="nonzero"/><path fill="rgb(32.939148%, 32.939148%, 32.939148%)" d="M 0.488281 0 L 47.511719 0 L 47.511719 47.019531 L 0.488281 47.019531 Z M 0.488281 0 " fill-opacity="1" fill-rule="nonzero"/></g><g fill="rgb(0%, 80.778503%, 81.959534%)" fill-opacity="1"><g transform="translate(11.345632, 26.374139)"><g><path d="M 0.46875 0 L 7.339844 0 L 7.339844 -1.269531 L 1.976562 -1.269531 L 1.976562 -6.679688 L 0.46875 -6.679688 Z M 0.46875 0 "/></g></g></g><g fill="rgb(87.449646%, 34.509277%, 34.509277%)" fill-opacity="1"><g transform="translate(19.05551, 26.374139)"><g><path d="M 3.722656 0 L 5.230469 0 L 5.230469 -5.410156 L 8.582031 -5.410156 L 8.582031 -6.679688 L 0.371094 -6.679688 L 0.371094 -5.410156 L 3.722656 -5.410156 Z M 3.722656 0 "/></g></g></g><g fill="rgb(89.019775%, 70.979309%, 25.489807%)" fill-opacity="1"><g transform="translate(28.00702, 26.374139)"><g><path d="M 0.46875 0 L 1.976562 0 L 1.976562 -1.84375 L 5.097656 -1.84375 L 6.222656 0 L 7.996094 0 L 6.746094 -2.023438 C 7.691406 -2.347656 8.273438 -3.140625 8.273438 -4.265625 C 8.273438 -5.753906 7.234375 -6.679688 5.71875 -6.679688 L 0.46875 -6.679688 Z M 1.976562 -3.113281 L 1.976562 -5.410156 L 5.238281 -5.410156 C 5.832031 -5.410156 6.765625 -5.410156 6.765625 -4.265625 C 6.765625 -3.113281 5.832031 -3.113281 5.238281 -3.113281 Z M 1.976562 -3.113281 "/></g></g></g></svg>